<svg width="1600" height="900" viewBox="0 0 1600 900" fill="none" xmlns="http://www.w3.org/2000/svg">
  <rect width="1600" height="900" fill="#FFFFFF"/>

  <defs>
    <linearGradient id="mainCard" x1="540" y1="210" x2="1080" y2="530" gradientUnits="userSpaceOnUse">
      <stop stop-color="#0F66E9"/>
      <stop offset="1" stop-color="#0B3A88"/>
    </linearGradient>
    <linearGradient id="headerBlue" x1="0" y1="0" x2="1" y2="1">
      <stop stop-color="#156AE8"/>
      <stop offset="1" stop-color="#0F4FB8"/>
    </linearGradient>
    <filter id="shadow" x="-20%" y="-20%" width="140%" height="160%">
      <feDropShadow dx="0" dy="16" stdDeviation="20" flood-color="#0C357B" flood-opacity="0.14"/>
    </filter>
    <filter id="glow" x="-30%" y="-30%" width="160%" height="160%">
      <feGaussianBlur stdDeviation="28" result="blur"/>
      <feColorMatrix in="blur" type="matrix" values="1 0 0 0 0.82 0 1 0 0 0.9 0 0 1 0 1 0 0 0 0.65 0"/>
    </filter>
    <style>
      .title { font: 700 42px 'Segoe UI', Arial, sans-serif; fill: #0F2B5D; }
      .card-head { font: 700 22px 'Segoe UI', Arial, sans-serif; fill: #FFFFFF; }
      .card-title { font: 700 22px 'Segoe UI', Arial, sans-serif; fill: #142E61; }
      .card-text { font: 400 18px 'Segoe UI', Arial, sans-serif; fill: #213D71; }
      .main-title { font: 700 38px 'Segoe UI', Arial, sans-serif; fill: #FFFFFF; }
      .main-sub { font: 600 26px 'Segoe UI', Arial, sans-serif; fill: #EAF3FF; }
      .main-text { font: 400 21px 'Segoe UI', Arial, sans-serif; fill: #EAF3FF; }
      .bottom-title { font: 700 22px 'Segoe UI', Arial, sans-serif; fill: #11459B; }
      .bottom-text { font: 400 18px 'Segoe UI', Arial, sans-serif; fill: #2A4775; }
    </style>
  </defs>

  <ellipse cx="805" cy="220" rx="520" ry="110" fill="#E8F2FF" filter="url(#glow)" opacity="0.55"/>

  <text x="800" y="88" text-anchor="middle" class="title">Практическая ценность проекта для банка</text>

  <!-- Top actors -->
  <g filter="url(#shadow)">
    <rect x="82" y="136" width="300" height="156" rx="18" fill="#FFFFFF" stroke="#115FD3" stroke-width="3"/>
    <rect x="82" y="136" width="300" height="56" rx="18" fill="url(#headerBlue)"/>
    <rect x="82" y="174" width="300" height="18" fill="url(#headerBlue)"/>
    <text x="232" y="172" text-anchor="middle" class="card-head">Клиент банка</text>
    <circle cx="232" cy="232" r="18" fill="#165DCE"/>
    <path d="M200 272C206 250 221 239 232 239C243 239 258 250 264 272" fill="#165DCE"/>
  </g>

  <g filter="url(#shadow)">
    <rect x="1218" y="136" width="300" height="156" rx="18" fill="#FFFFFF" stroke="#0F2F67" stroke-width="3"/>
    <rect x="1218" y="136" width="300" height="56" rx="18" fill="#0F2F67"/>
    <rect x="1218" y="174" width="300" height="18" fill="#0F2F67"/>
    <text x="1368" y="172" text-anchor="middle" class="card-head">Сотрудник банка</text>
    <circle cx="1368" cy="228" r="18" fill="#0F2F67"/>
    <path d="M1336 272C1342 250 1357 239 1368 239C1379 239 1394 250 1400 272" fill="#0F2F67"/>
    <rect x="1357" y="252" width="22" height="30" fill="#FFFFFF"/>
    <path d="M1368 236L1383 248H1353L1368 236Z" fill="#FFFFFF"/>
  </g>

  <!-- Left service channel cards -->
  <g filter="url(#shadow)">
    <rect x="88" y="344" width="350" height="136" rx="18" fill="#FFFFFF" stroke="#115FD3" stroke-width="3"/>
    <rect x="108" y="380" width="56" height="72" rx="10" fill="#156AE8"/>
    <rect x="121" y="394" width="30" height="42" rx="4" fill="#FFFFFF"/>
    <circle cx="136" cy="444" r="5" fill="#FFFFFF"/>
    <text x="190" y="390" class="card-title">VK Mini App</text>
    <text x="190" y="420" class="card-text">Быстрый доступ клиентов</text>
    <text x="190" y="446" class="card-text">к банковским сервисам</text>
    <text x="190" y="472" class="card-text">без отдельного приложения</text>
  </g>

  <g filter="url(#shadow)">
    <rect x="88" y="500" width="350" height="136" rx="18" fill="#FFFFFF" stroke="#115FD3" stroke-width="3"/>
    <path d="M106 560C106 538 124 522 146 522H164C186 522 204 538 204 560C204 568 198 574 190 574H172L154 590V574H120C112 574 106 568 106 560Z" fill="#156AE8"/>
    <circle cx="134" cy="548" r="5" fill="#FFFFFF"/>
    <circle cx="154" cy="548" r="5" fill="#FFFFFF"/>
    <circle cx="174" cy="548" r="5" fill="#FFFFFF"/>
    <text x="224" y="546" class="card-title">VK-бот</text>
    <text x="224" y="576" class="card-text">Дополнительный канал</text>
    <text x="224" y="602" class="card-text">уведомлений и взаимодействия</text>
  </g>

  <g filter="url(#shadow)">
    <rect x="88" y="656" width="350" height="136" rx="18" fill="#FFFFFF" stroke="#115FD3" stroke-width="3"/>
    <path d="M140 684C117 684 100 701 100 724C100 745 115 762 135 764L123 782L154 768C180 773 205 756 210 730C216 704 197 680 170 680C162 680 150 682 140 684Z" fill="#156AE8"/>
    <path d="M130 731C130 714 143 700 159 700C173 700 186 712 186 728C186 742 176 752 164 756" stroke="#FFFFFF" stroke-width="6" stroke-linecap="round"/>
    <path d="M154 729C154 708 147 698 137 692" stroke="#FFFFFF" stroke-width="6" stroke-linecap="round"/>
    <text x="224" y="702" class="card-title">AI-помощник</text>
    <text x="224" y="732" class="card-text">Автоматизация ответов</text>
    <text x="224" y="758" class="card-text">и разгрузка первой линии</text>
    <text x="224" y="784" class="card-text">поддержки</text>
  </g>

  <!-- Right admin card -->
  <g filter="url(#shadow)">
    <rect x="1128" y="402" width="390" height="156" rx="18" fill="#FFFFFF" stroke="#0F2F67" stroke-width="3"/>
    <rect x="1162" y="448" width="74" height="56" rx="10" fill="none" stroke="#0F2F67" stroke-width="5"/>
    <rect x="1174" y="488" width="50" height="6" rx="3" fill="#0F2F67"/>
    <rect x="1180" y="468" width="8" height="20" rx="3" fill="#0F2F67"/>
    <rect x="1194" y="458" width="8" height="30" rx="3" fill="#0F2F67"/>
    <rect x="1208" y="450" width="8" height="38" rx="3" fill="#0F2F67"/>
    <circle cx="1228" cy="468" r="13" fill="#0F2F67"/>
    <text x="1260" y="458" class="card-title">Административная панель</text>
    <text x="1260" y="488" class="card-text">Обработка заявок, сервисных</text>
    <text x="1260" y="514" class="card-text">запросов, ролей сотрудников</text>
    <text x="1260" y="540" class="card-text">и контроль действий</text>
  </g>

  <!-- Center core -->
  <g filter="url(#shadow)">
    <rect x="541" y="260" width="518" height="270" rx="28" fill="url(#mainCard)"/>
    <path d="M792 304C792 291 803 280 816 280C829 280 840 291 840 304C840 317 829 328 816 328C803 328 792 317 792 304Z" fill="#FFFFFF"/>
    <path d="M816 261V278M816 330V347M773 304H790M842 304H859M786 274L797 285M835 323L846 334M786 334L797 323M835 285L846 274" stroke="#FFFFFF" stroke-width="8" stroke-linecap="round"/>
    <text x="800" y="386" text-anchor="middle" class="main-title">Практическая ценность</text>
    <text x="800" y="423" text-anchor="middle" class="main-sub">информационной системы банка</text>
    <line x1="650" y1="446" x2="950" y2="446" stroke="#D8E7FF" stroke-width="2" opacity="0.7"/>
    <text x="800" y="487" text-anchor="middle" class="main-text">Дополнительный цифровой канал обслуживания,</text>
    <text x="800" y="517" text-anchor="middle" class="main-text">ускорение обработки обращений и повышение</text>
    <text x="800" y="547" text-anchor="middle" class="main-text">прозрачности работы сотрудников банка</text>
  </g>

  <!-- Database / process hub -->
  <g filter="url(#shadow)">
    <rect x="640" y="584" width="320" height="102" rx="18" fill="#0D2550"/>
    <circle cx="710" cy="635" r="26" fill="#FFFFFF"/>
    <ellipse cx="710" cy="620" rx="26" ry="10" fill="#0D2550"/>
    <path d="M684 620V650C684 658 696 665 710 665C724 665 736 658 736 650V620" stroke="#FFFFFF" stroke-width="4"/>
    <path d="M684 635C684 643 696 650 710 650C724 650 736 643 736 635" stroke="#FFFFFF" stroke-width="4"/>
    <text x="760" y="626" class="card-head">Операционная эффективность</text>
    <text x="760" y="655" class="main-text">Единая обработка данных, заявок</text>
    <text x="760" y="680" class="main-text">и клиентских сценариев</text>
  </g>

  <!-- Bottom value cards -->
  <g filter="url(#shadow)">
    <rect x="86" y="736" width="360" height="112" rx="18" fill="#FFFFFF" stroke="#115FD3" stroke-width="3"/>
    <circle cx="148" cy="792" r="30" fill="#EAF2FF"/>
    <path d="M132 792H164" stroke="#156AE8" stroke-width="6" stroke-linecap="round"/>
    <path d="M148 776V808" stroke="#156AE8" stroke-width="6" stroke-linecap="round"/>
    <text x="198" y="782" class="bottom-title">Рост доступности сервиса</text>
    <text x="198" y="810" class="bottom-text">Клиент получает банковские услуги</text>
    <text x="198" y="834" class="bottom-text">в привычной среде ВКонтакте</text>
  </g>

  <g filter="url(#shadow)">
    <rect x="480" y="736" width="360" height="112" rx="18" fill="#FFFFFF" stroke="#115FD3" stroke-width="3"/>
    <circle cx="542" cy="792" r="30" fill="#EAF2FF"/>
    <path d="M528 790L540 802L558 780" stroke="#156AE8" stroke-width="6" stroke-linecap="round" stroke-linejoin="round"/>
    <text x="592" y="782" class="bottom-title">Ускорение обработки заявок</text>
    <text x="592" y="810" class="bottom-text">Автоматизация маршрутов снижает</text>
    <text x="592" y="834" class="bottom-text">время реакции сотрудников</text>
  </g>

  <g filter="url(#shadow)">
    <rect x="874" y="736" width="360" height="112" rx="18" fill="#FFFFFF" stroke="#115FD3" stroke-width="3"/>
    <circle cx="936" cy="792" r="30" fill="#EAF2FF"/>
    <path d="M923 798V783C923 775 929 769 936 769C943 769 949 775 949 783V798" stroke="#156AE8" stroke-width="5" stroke-linecap="round"/>
    <rect x="924" y="795" width="24" height="18" rx="5" fill="#156AE8"/>
    <text x="986" y="782" class="bottom-title">Контроль и безопасность</text>
    <text x="986" y="810" class="bottom-text">Роли, аудит и централизованное</text>
    <text x="986" y="834" class="bottom-text">управление доступом</text>
  </g>

  <g filter="url(#shadow)">
    <rect x="1268" y="736" width="246" height="112" rx="18" fill="#FFFFFF" stroke="#115FD3" stroke-width="3"/>
    <circle cx="1320" cy="792" r="30" fill="#EAF2FF"/>
    <path d="M1305 789H1335" stroke="#156AE8" stroke-width="6" stroke-linecap="round"/>
    <path d="M1320 774V804" stroke="#156AE8" stroke-width="6" stroke-linecap="round"/>
    <text x="1391" y="782" text-anchor="middle" class="bottom-title">Масштабирование</text>
    <text x="1391" y="810" text-anchor="middle" class="bottom-text">Основа для дальнейшего</text>
    <text x="1391" y="834" text-anchor="middle" class="bottom-text">развития цифрового канала</text>
  </g>

  <!-- Arrows -->
  <path d="M232 292V330" stroke="#115FD3" stroke-width="4" stroke-linecap="round"/>
  <path d="M1368 292V386" stroke="#0F2F67" stroke-width="4" stroke-linecap="round"/>
  <path d="M439 412H518" stroke="#115FD3" stroke-width="4" stroke-linecap="round"/>
  <path d="M503 398L526 412L503 426" stroke="#115FD3" stroke-width="4" stroke-linecap="round" stroke-linejoin="round"/>
  <path d="M439 568H494V456H518" stroke="#115FD3" stroke-width="4" stroke-linecap="round" stroke-linejoin="round"/>
  <path d="M503 442L526 456L503 470" stroke="#115FD3" stroke-width="4" stroke-linecap="round" stroke-linejoin="round"/>
  <path d="M439 724H500V500H518" stroke="#115FD3" stroke-width="4" stroke-linecap="round" stroke-linejoin="round"/>
  <path d="M503 486L526 500L503 514" stroke="#115FD3" stroke-width="4" stroke-linecap="round" stroke-linejoin="round"/>
  <path d="M1218 214V246H1060V396" stroke="#0F2F67" stroke-width="4" stroke-linecap="round" stroke-linejoin="round"/>
  <path d="M1076 382L1060 404L1044 382" stroke="#0F2F67" stroke-width="4" stroke-linecap="round" stroke-linejoin="round"/>
  <path d="M800 530V570" stroke="#115FD3" stroke-width="4" stroke-linecap="round"/>
  <path d="M784 554L800 572L816 554" stroke="#115FD3" stroke-width="4" stroke-linecap="round" stroke-linejoin="round"/>
  <path d="M800 686V716H266V736" stroke="#115FD3" stroke-width="4" stroke-linecap="round" stroke-linejoin="round"/>
  <path d="M800 686V716H660V736" stroke="#115FD3" stroke-width="4" stroke-linecap="round" stroke-linejoin="round"/>
  <path d="M800 686V716H1054V736" stroke="#115FD3" stroke-width="4" stroke-linecap="round" stroke-linejoin="round"/>
  <path d="M800 686V716H1391V736" stroke="#115FD3" stroke-width="4" stroke-linecap="round" stroke-linejoin="round"/>
</svg>
